<svg width="162" height="46" xmlns="http://www.w3.org/2000/svg" xmlns:svg="http://www.w3.org/2000/svg">
 <g class="layer">
  <title>Layer 1</title>
  <path d="m25,45c12.15,0 22,-9.85 22,-22c0,-12.15 -9.85,-22 -22,-22c-12.15,0 -22,9.85 -22,22c0,12.15 9.85,22 22,22z" fill="#2FD2E5" id="svg_1"/>
  <path d="m25.78,6.51c-3.71,-0.13 -7.36,1.02 -10.33,3.26c-0.28,0.22 -0.52,0.5 -0.69,0.81c-0.16,0.32 -0.26,0.68 -0.27,1.03c-0.02,0.36 0.05,0.72 0.19,1.05c0.14,0.33 0.35,0.63 0.62,0.87c0.86,0.81 2.18,0.87 3.11,0.15c2.27,-1.77 5.13,-2.63 8,-2.39c2.88,0.23 5.56,1.53 7.52,3.64c0.82,0.84 0.84,2.16 0.06,3.03c-0.19,0.21 -0.43,0.38 -0.69,0.5c-0.26,0.12 -0.54,0.18 -0.83,0.19c-0.29,0.01 -0.57,-0.03 -0.84,-0.13c-0.27,-0.11 -0.51,-0.26 -0.72,-0.45l-0.11,-0.11c-0.98,-1.07 -2.26,-1.83 -3.67,-2.16c-1.42,-0.33 -2.9,-0.23 -4.25,0.3c-1.36,0.52 -2.52,1.44 -3.34,2.64c-0.82,1.2 -1.26,2.62 -1.26,4.07c0,1.46 0.44,2.87 1.26,4.07c0.82,1.2 1.98,2.12 3.34,2.65c1.35,0.52 2.83,0.63 4.25,0.29c1.41,-0.33 2.69,-1.08 3.67,-2.15c0.31,-0.36 0.73,-0.59 1.2,-0.68c0.46,-0.09 0.94,-0.02 1.36,0.19c0.3,0.15 0.56,0.37 0.76,0.63c0.2,0.27 0.34,0.58 0.4,0.91c0.06,0.33 0.04,0.67 -0.05,0.99c-0.09,0.32 -0.25,0.62 -0.48,0.87c-1.95,2.14 -4.64,3.46 -7.53,3.72c-2.88,0.25 -5.76,-0.59 -8.06,-2.35c-0.45,-0.35 -1.02,-0.53 -1.59,-0.5c-0.57,0.03 -1.11,0.26 -1.53,0.65c-0.27,0.24 -0.48,0.54 -0.62,0.88c-0.13,0.34 -0.19,0.7 -0.17,1.06c0.02,0.36 0.11,0.72 0.29,1.04c0.17,0.31 0.41,0.59 0.7,0.81c2.05,1.52 4.43,2.54 6.95,2.97c2.52,0.43 5.1,0.27 7.54,-0.48c2.44,-0.75 4.67,-2.07 6.51,-3.83c1.85,-1.77 3.25,-3.95 4.09,-6.36c0.84,-2.41 1.11,-4.99 0.78,-7.52c-0.33,-2.53 -1.26,-4.95 -2.7,-7.06c-1.44,-2.11 -3.35,-3.85 -5.59,-5.08c-2.23,-1.24 -4.73,-1.93 -7.28,-2.02l0,0zm-0.3,20.33c-0.53,0 -1.05,-0.11 -1.54,-0.31c-0.49,-0.2 -0.93,-0.5 -1.31,-0.88c-0.37,-0.37 -0.66,-0.82 -0.87,-1.31c-0.2,-0.49 -0.3,-1.02 -0.3,-1.54c0.01,-0.53 0.11,-1.06 0.32,-1.55c0.2,-0.49 0.5,-0.93 0.88,-1.3c0.37,-0.38 0.82,-0.67 1.31,-0.87c0.49,-0.2 1.01,-0.3 1.54,-0.3c1.07,0 2.1,0.43 2.85,1.19c0.75,0.76 1.17,1.79 1.17,2.85c0,1.07 -0.43,2.1 -1.19,2.85c-0.76,0.76 -1.79,1.18 -2.86,1.17l0,0z" fill="white" id="svg_2"/>
  <text fill="#ffffff" font-family="Courier" font-size="30" font-weight="bold" id="svg_4" letter-spacing="0" stroke-width="0" style="cursor: move;" text-anchor="middle" x="107.99" xml:space="preserve" y="32.75">Ishop.</text>
 </g>

</svg>